<?xml version="1.0" standalone="no"?>
<!DOCTYPE svg PUBLIC "-//W3C//DTD SVG 20010904//EN"
 "http://www.w3.org/TR/2001/REC-SVG-20010904/DTD/svg10.dtd">
<svg version="1.0" xmlns="http://www.w3.org/2000/svg"
 width="196.000000pt" height="196.000000pt" viewBox="0 0 196.000000 196.000000"
 preserveAspectRatio="xMidYMid meet">
<metadata>
Created by potrace 1.11, written by Peter Selinger 2001-2013
</metadata>
<g transform="translate(0.000000,196.000000) scale(0.100000,-0.100000)"
fill="#000000" stroke="none">
<path d="M805 1660 c-88 -54 -231 -142 -317 -195 l-158 -96 0 -394 0 -393 160
-99 c87 -54 230 -142 317 -195 87 -54 164 -98 172 -98 14 0 210 116 336 200
39 26 123 79 188 119 l117 72 0 394 0 393 -147 92 c-82 51 -222 139 -313 196
-91 57 -172 104 -180 104 -8 0 -87 -45 -175 -100z m362 -302 c67 -37 98 -118
73 -194 -16 -49 -70 -106 -120 -129 -22 -10 -40 -21 -40 -24 1 -3 51 -80 113
-171 94 -138 117 -167 145 -175 24 -7 32 -15 32 -32 0 -23 -2 -23 -105 -23
l-105 0 -129 197 c-71 109 -127 201 -125 205 3 4 19 8 35 8 44 0 104 35 128
73 15 24 21 51 21 88 0 101 -54 149 -168 149 l-59 0 -5 -212 c-5 -213 2 -431
14 -443 3 -4 25 -9 47 -12 35 -5 41 -9 41 -29 l0 -24 -175 0 -175 0 0 24 c0
20 6 24 39 30 22 3 41 13 45 22 8 20 8 582 0 612 -5 16 -16 24 -45 28 -33 6
-39 10 -39 31 l0 24 263 -3 c225 -3 266 -5 294 -20z"/>
</g>
</svg>
