<?xml version="1.0" standalone="no"?>
<!DOCTYPE svg PUBLIC "-//W3C//DTD SVG 20010904//EN"
 "http://www.w3.org/TR/2001/REC-SVG-20010904/DTD/svg10.dtd">
<svg version="1.0" xmlns="http://www.w3.org/2000/svg"
 width="196.000000pt" height="196.000000pt" viewBox="0 0 196.000000 196.000000"
 preserveAspectRatio="xMidYMid meet">
<metadata>
Created by potrace 1.11, written by Peter Selinger 2001-2013
</metadata>
<g transform="translate(0.000000,196.000000) scale(0.100000,-0.100000)"
fill="#000000" stroke="none">
<path d="M870 1684 c-147 -29 -254 -76 -353 -156 -120 -97 -201 -217 -248
-368 -33 -107 -33 -282 -1 -395 71 -247 251 -429 502 -506 62 -20 97 -24 200
-24 103 0 138 4 200 24 250 77 423 251 501 501 34 107 34 292 0 400 -97 312
-358 516 -676 525 -55 2 -111 1 -125 -1z m342 -321 c90 -41 129 -105 129 -208
0 -109 -48 -184 -144 -225 l-51 -22 30 -13 c44 -18 92 -83 167 -226 37 -70 67
-130 67 -133 0 -3 -67 -6 -148 -6 l-149 0 -83 155 c-45 85 -90 161 -100 170
-10 9 -34 19 -54 22 l-36 6 0 -177 0 -176 -135 0 -135 0 0 431 0 431 298 -4
c281 -3 300 -4 344 -25z"/>
<path d="M840 1130 l0 -93 88 6 c104 6 118 11 137 48 21 40 19 64 -9 96 -23
26 -29 28 -120 31 l-96 4 0 -92z"/>
</g>
</svg>
